<svg xmlns="http://www.w3.org/2000/svg" viewBox="0 0 1400 800"><defs><filter id="n"><feTurbulence baseFrequency=".018" numOctaves="5" seed="31"/><feDisplacementMap in="SourceGraphic" scale="18"/></filter><linearGradient id="e"><stop stop-color="#9A5E42"/><stop offset=".45" stop-color="#714737"/><stop offset="1" stop-color="#3C3327"/></linearGradient></defs><rect width="1400" height="800" fill="url(#e)"/><g filter="url(#n)" opacity=".45" fill="none" stroke="#D8D1C4"><path d="M0 155c280-98 530 74 828-22s383 21 572-49M0 331c293-76 490 58 782-11s406-26 618 37M0 539c245-54 482 68 755-1s420-24 645 62" stroke-width="3"/><path d="M166 0c-40 226 45 413-26 800M662 0c-55 226 40 407-15 800M1120 0c-44 228 36 417-29 800" stroke-width="2"/></g><g fill="#EEE9E1" font-family="Arial" font-size="16" letter-spacing="5"><text x="60" y="70">MATERIAL 03 / EARTH + MUD</text><text x="60" y="748">DEMO TEXTURE · PLACEHOLDER STUDY</text></g></svg>
